<svg width="1280" height="720" xmlns="http://www.w3.org/2000/svg" xmlns:xlink="http://www.w3.org/1999/xlink" overflow="hidden"><defs><filter id="fx0" x="-10%" y="-10%" width="120%" height="120%" filterUnits="userSpaceOnUse" primitiveUnits="userSpaceOnUse"><feComponentTransfer color-interpolation-filters="sRGB"><feFuncR type="discrete" tableValues="0 0"/><feFuncG type="discrete" tableValues="0 0"/><feFuncB type="discrete" tableValues="0 0"/><feFuncA type="linear" slope="0.631373" intercept="0"/></feComponentTransfer><feGaussianBlur stdDeviation="2 2"/></filter><filter id="fx1" x="-10%" y="-10%" width="120%" height="120%" filterUnits="userSpaceOnUse" primitiveUnits="userSpaceOnUse"><feComponentTransfer color-interpolation-filters="sRGB"><feFuncR type="discrete" tableValues="0 0"/><feFuncG type="discrete" tableValues="0 0"/><feFuncB type="discrete" tableValues="0 0"/><feFuncA type="linear" slope="0.631373" intercept="0"/></feComponentTransfer><feGaussianBlur stdDeviation="2 2"/></filter><filter id="fx2" x="-10%" y="-10%" width="120%" height="120%" filterUnits="userSpaceOnUse" primitiveUnits="userSpaceOnUse"><feComponentTransfer color-interpolation-filters="sRGB"><feFuncR type="discrete" tableValues="0 0"/><feFuncG type="discrete" tableValues="0 0"/><feFuncB type="discrete" tableValues="0 0"/><feFuncA type="linear" slope="0.631373" intercept="0"/></feComponentTransfer><feGaussianBlur stdDeviation="2 2"/></filter><filter id="fx3" x="-10%" y="-10%" width="120%" height="120%" filterUnits="userSpaceOnUse" primitiveUnits="userSpaceOnUse"><feComponentTransfer color-interpolation-filters="sRGB"><feFuncR type="discrete" tableValues="0 0"/><feFuncG type="discrete" tableValues="0 0"/><feFuncB type="discrete" tableValues="0 0"/><feFuncA type="linear" slope="0.631373" intercept="0"/></feComponentTransfer><feGaussianBlur stdDeviation="2 2"/></filter><filter id="fx4" x="-10%" y="-10%" width="120%" height="120%" filterUnits="userSpaceOnUse" primitiveUnits="userSpaceOnUse"><feComponentTransfer color-interpolation-filters="sRGB"><feFuncR type="discrete" tableValues="0 0"/><feFuncG type="discrete" tableValues="0 0"/><feFuncB type="discrete" tableValues="0 0"/><feFuncA type="linear" slope="0.631373" intercept="0"/></feComponentTransfer><feGaussianBlur stdDeviation="2 2"/></filter><filter id="fx5" x="-10%" y="-10%" width="120%" height="120%" filterUnits="userSpaceOnUse" primitiveUnits="userSpaceOnUse"><feComponentTransfer color-interpolation-filters="sRGB"><feFuncR type="discrete" tableValues="0 0"/><feFuncG type="discrete" tableValues="0 0"/><feFuncB type="discrete" tableValues="0 0"/><feFuncA type="linear" slope="0.631373" intercept="0"/></feComponentTransfer><feGaussianBlur stdDeviation="2 2"/></filter><filter id="fx6" x="-10%" y="-10%" width="120%" height="120%" filterUnits="userSpaceOnUse" primitiveUnits="userSpaceOnUse"><feComponentTransfer color-interpolation-filters="sRGB"><feFuncR type="discrete" tableValues="0 0"/><feFuncG type="discrete" tableValues="0 0"/><feFuncB type="discrete" tableValues="0 0"/><feFuncA type="linear" slope="0.631373" intercept="0"/></feComponentTransfer><feGaussianBlur stdDeviation="2 2"/></filter><filter id="fx7" x="-10%" y="-10%" width="120%" height="120%" filterUnits="userSpaceOnUse" primitiveUnits="userSpaceOnUse"><feComponentTransfer color-interpolation-filters="sRGB"><feFuncR type="discrete" tableValues="0 0"/><feFuncG type="discrete" tableValues="0 0"/><feFuncB type="discrete" tableValues="0 0"/><feFuncA type="linear" slope="0.631373" intercept="0"/></feComponentTransfer><feGaussianBlur stdDeviation="2 2"/></filter><clipPath id="clip8"><rect x="26" y="22" width="160" height="43"/></clipPath><clipPath id="clip9"><rect x="26" y="24" width="156" height="47"/></clipPath><clipPath id="clip10"><rect x="26" y="24" width="115" height="47"/></clipPath><clipPath id="clip11"><path d="M893.5 360.5 953.5 420.5 893.5 480.5 1131.5 480.5 1191.5 420.5 1131.5 360.5ZM1.90735e-05 1.07288e-05 1280 1.07288e-05 1280 720 1.90735e-05 720Z" fill-rule="evenodd" clip-rule="evenodd"/></clipPath><clipPath id="clip12"><rect x="24" y="22" width="171" height="49"/></clipPath></defs><g><rect x="0" y="0" width="1280" height="720" fill="#FFFFFF"/><g filter="url(#fx0)" transform="translate(82 355)"><g><path d="M7 7 245 7 305 67 245 127 7 127 66.9999 67Z" fill="#0D6EFD" fill-rule="evenodd"/></g></g><g clip-path="url(#clip8)" filter="url(#fx1)" transform="translate(136 376)"><g><path d="M18.8867-17.8711C18.8867-16.6081 18.6784-15.4688 18.2617-14.4531 17.8451-13.4375 17.2493-12.5716 16.4746-11.8555 15.6999-11.1393 14.7493-10.5859 13.623-10.1953 12.4967-9.80469 11.1523-9.60938 9.58984-9.60938L6.71875-9.60938 6.71875-0.507812C6.71875-0.403646 6.68945-0.3125 6.63086-0.234375 6.57227-0.15625 6.48112-0.094401 6.35742-0.0488281 6.23372-0.00325521 6.06445 0.0358073 5.84961 0.0683594 5.63477 0.100911 5.36458 0.117187 5.03906 0.117188 4.71354 0.117187 4.44336 0.100911 4.22852 0.0683594 4.01367 0.0358073 3.84115-0.00325521 3.71094-0.0488281 3.58073-0.094401 3.48958-0.15625 3.4375-0.234375 3.38542-0.3125 3.35938-0.403646 3.35938-0.507812L3.35938-23.8281C3.35938-24.349 3.49609-24.7201 3.76953-24.9414 4.04297-25.1628 4.34896-25.2734 4.6875-25.2734L10.0977-25.2734C10.6445-25.2734 11.1686-25.2507 11.6699-25.2051 12.1712-25.1595 12.7637-25.0618 13.4473-24.9121 14.1309-24.7624 14.8275-24.4824 15.5371-24.0723 16.2467-23.6621 16.849-23.1576 17.3438-22.5586 17.8385-21.9596 18.2194-21.2663 18.4863-20.4785 18.7533-19.6908 18.8867-18.8216 18.8867-17.8711ZM15.3516-17.5977C15.3516-18.6263 15.1595-19.4857 14.7754-20.1758 14.3913-20.8659 13.916-21.3802 13.3496-21.7188 12.7832-22.0573 12.1973-22.2721 11.5918-22.3633 10.9863-22.4544 10.3971-22.5 9.82422-22.5L6.71875-22.5 6.71875-12.3633 9.74609-12.3633C10.7617-12.3633 11.6048-12.4935 12.2754-12.7539 12.946-13.0143 13.5091-13.3757 13.9648-13.8379 14.4206-14.3001 14.7656-14.8535 15-15.498 15.2344-16.1426 15.3516-16.8424 15.3516-17.5977ZM38.7135-0.488281C38.7135-0.384115 38.6908-0.296224 38.6452-0.224609 38.5996-0.152995 38.5182-0.0911458 38.401-0.0390625 38.2839 0.0130208 38.1309 0.0520833 37.9421 0.078125 37.7533 0.104167 37.5221 0.117187 37.2487 0.117188 36.9492 0.117187 36.7051 0.104167 36.5163 0.078125 36.3275 0.0520833 36.1777 0.0130208 36.0671-0.0390625 35.9564-0.0911458 35.8815-0.152995 35.8424-0.224609 35.8034-0.296224 35.7839-0.384115 35.7839-0.488281L35.7839-2.8125C34.7812-1.70573 33.7917-0.898438 32.8151-0.390625 31.8385 0.117187 30.849 0.371094 29.8464 0.371094 28.6745 0.371094 27.6882 0.175781 26.8874-0.214844 26.0866-0.605469 25.4388-1.13607 24.944-1.80664 24.4492-2.47721 24.0944-3.25846 23.8796-4.15039 23.6647-5.04232 23.5573-6.1263 23.5573-7.40234L23.5573-18.0664C23.5573-18.1706 23.5801-18.2585 23.6257-18.3301 23.6712-18.4017 23.7591-18.4668 23.8893-18.5254 24.0195-18.584 24.1888-18.623 24.3971-18.6426 24.6055-18.6621 24.8659-18.6719 25.1784-18.6719 25.4909-18.6719 25.7513-18.6621 25.9596-18.6426 26.168-18.623 26.334-18.584 26.4577-18.5254 26.5814-18.4668 26.6693-18.4017 26.7214-18.3301 26.7734-18.2585 26.7995-18.1706 26.7995-18.0664L26.7995-7.83203C26.7995-6.80339 26.8743-5.97982 27.0241-5.36133 27.1738-4.74284 27.4017-4.21549 27.7077-3.7793 28.0137-3.3431 28.401-3.00456 28.8698-2.76367 29.3385-2.52279 29.8854-2.40234 30.5104-2.40234 31.3177-2.40234 32.1217-2.6888 32.9225-3.26172 33.7233-3.83464 34.5729-4.67448 35.4714-5.78125L35.4714-18.0664C35.4714-18.1706 35.4941-18.2585 35.5397-18.3301 35.5853-18.4017 35.6732-18.4668 35.8034-18.5254 35.9336-18.584 36.0996-18.623 36.3014-18.6426 36.5033-18.6621 36.7669-18.6719 37.0924-18.6719 37.4049-18.6719 37.6654-18.6621 37.8737-18.6426 38.082-18.623 38.2448-18.584 38.362-18.5254 38.4792-18.4668 38.5671-18.4017 38.6257-18.3301 38.6842-18.2585 38.7135-18.1706 38.7135-18.0664ZM54.9417-16.9141C54.9417-16.6276 54.9352-16.3867 54.9222-16.1914 54.9092-15.9961 54.8831-15.8431 54.8441-15.7324 54.805-15.6217 54.7562-15.5371 54.6976-15.4785 54.639-15.4199 54.5576-15.3906 54.4534-15.3906 54.3493-15.3906 54.2223-15.4199 54.0726-15.4785 53.9228-15.5371 53.7536-15.5957 53.5648-15.6543 53.376-15.7129 53.1644-15.7682 52.93-15.8203 52.6956-15.8724 52.4417-15.8984 52.1683-15.8984 51.8428-15.8984 51.5238-15.8333 51.2113-15.7031 50.8988-15.5729 50.57-15.3581 50.2249-15.0586 49.8799-14.7591 49.5185-14.362 49.1409-13.8672 48.7633-13.3724 48.3467-12.7669 47.8909-12.0508L47.8909-0.488281C47.8909-0.384115 47.8649-0.296224 47.8128-0.224609 47.7607-0.152995 47.6761-0.0911458 47.5589-0.0390625 47.4417 0.0130208 47.279 0.0520833 47.0706 0.078125 46.8623 0.104167 46.5954 0.117187 46.2698 0.117188 45.9573 0.117187 45.6969 0.104167 45.4886 0.078125 45.2803 0.0520833 45.1142 0.0130208 44.9905-0.0390625 44.8668-0.0911458 44.7822-0.152995 44.7366-0.224609 44.6911-0.296224 44.6683-0.384115 44.6683-0.488281L44.6683-18.0664C44.6683-18.1706 44.6878-18.2585 44.7269-18.3301 44.7659-18.4017 44.8441-18.4668 44.9613-18.5254 45.0784-18.584 45.2282-18.623 45.4105-18.6426 45.5928-18.6621 45.8336-18.6719 46.1331-18.6719 46.4196-18.6719 46.6572-18.6621 46.846-18.6426 47.0348-18.623 47.1813-18.584 47.2855-18.5254 47.3896-18.4668 47.4645-18.4017 47.5101-18.3301 47.5556-18.2585 47.5784-18.1706 47.5784-18.0664L47.5784-15.5078C48.0602-16.2109 48.5127-16.7839 48.9359-17.2266 49.359-17.6693 49.7594-18.0176 50.137-18.2715 50.5146-18.5254 50.889-18.7012 51.2601-18.7988 51.6312-18.8965 52.0055-18.9453 52.3831-18.9453 52.5524-18.9453 52.7444-18.9355 52.9593-18.916 53.1741-18.8965 53.3987-18.8607 53.6331-18.8086 53.8675-18.7565 54.0791-18.6979 54.2679-18.6328 54.4567-18.5677 54.5902-18.5026 54.6683-18.4375 54.7464-18.3724 54.7985-18.3105 54.8245-18.252 54.8506-18.1934 54.8734-18.1185 54.8929-18.0273 54.9124-17.9362 54.9254-17.8027 54.932-17.627 54.9385-17.4512 54.9417-17.2135 54.9417-16.9141ZM70.665-3.16406C70.665-2.94271 70.6585-2.75065 70.6455-2.58789 70.6324-2.42513 70.6097-2.28841 70.5771-2.17773 70.5446-2.06706 70.5055-1.9694 70.4599-1.88477 70.4144-1.80013 70.3102-1.67643 70.1474-1.51367 69.9847-1.35091 69.708-1.14909 69.3173-0.908203 68.9267-0.667318 68.4873-0.452474 67.999-0.263672 67.5107-0.0748698 66.9801 0.078125 66.4072 0.195312 65.8343 0.3125 65.2418 0.371094 64.6298 0.371094 63.3668 0.371094 62.247 0.16276 61.2705-0.253906 60.2939-0.670573 59.4768-1.2793 58.8193-2.08008 58.1617-2.88086 57.6604-3.86393 57.3154-5.0293 56.9703-6.19466 56.7978-7.53906 56.7978-9.0625 56.7978-10.7943 57.0094-12.2819 57.4326-13.5254 57.8558-14.7689 58.4352-15.7878 59.1709-16.582 59.9065-17.3763 60.7724-17.9655 61.7685-18.3496 62.7646-18.7337 63.8421-18.9258 65.0009-18.9258 65.5608-18.9258 66.1045-18.8737 66.6318-18.7695 67.1591-18.6654 67.6442-18.5286 68.0869-18.3594 68.5296-18.1901 68.9235-17.9948 69.2685-17.7734 69.6136-17.5521 69.8642-17.3633 70.0205-17.207 70.1767-17.0508 70.2841-16.9271 70.3427-16.8359 70.4013-16.7448 70.4501-16.6374 70.4892-16.5137 70.5283-16.39 70.5543-16.25 70.5673-16.0938 70.5804-15.9375 70.5869-15.7422 70.5869-15.5078 70.5869-15 70.5283-14.6452 70.4111-14.4434 70.2939-14.2415 70.1507-14.1406 69.9814-14.1406 69.7861-14.1406 69.5615-14.248 69.3076-14.4629 69.0537-14.6777 68.7314-14.9154 68.3408-15.1758 67.9502-15.4362 67.4781-15.6738 66.9248-15.8887 66.3714-16.1035 65.7171-16.2109 64.9619-16.2109 63.4124-16.2109 62.2242-15.6152 61.3974-14.4238 60.5706-13.2324 60.1572-11.5039 60.1572-9.23828 60.1572-8.10547 60.2646-7.11263 60.4795-6.25977 60.6943-5.4069 61.0101-4.69401 61.4267-4.12109 61.8434-3.54818 62.3545-3.12174 62.9599-2.8418 63.5654-2.56185 64.2587-2.42188 65.04-2.42188 65.7822-2.42188 66.4332-2.53906 66.9931-2.77344 67.553-3.00781 68.038-3.26497 68.4482-3.54492 68.8584-3.82487 69.2034-4.07878 69.4834-4.30664 69.7633-4.5345 69.9814-4.64844 70.1377-4.64844 70.2288-4.64844 70.3069-4.6224 70.372-4.57031 70.4371-4.51823 70.4925-4.43034 70.538-4.30664 70.5836-4.18294 70.6162-4.02669 70.6357-3.83789 70.6552-3.64909 70.665-3.42448 70.665-3.16406ZM90.0783-0.488281C90.0783-0.384115 90.0523-0.296224 90.0002-0.224609 89.9481-0.152995 89.8635-0.0911458 89.7463-0.0390625 89.6291 0.0130208 89.4664 0.0520833 89.258 0.078125 89.0497 0.104167 88.7893 0.117187 88.4768 0.117188 88.1513 0.117187 87.8843 0.104167 87.676 0.078125 87.4677 0.0520833 87.3049 0.0130208 87.1877-0.0390625 87.0705-0.0911458 86.9859-0.152995 86.9338-0.224609 86.8817-0.296224 86.8557-0.384115 86.8557-0.488281L86.8557-10.7812C86.8557-11.7839 86.7776-12.5911 86.6213-13.2031 86.4651-13.8151 86.2372-14.3424 85.9377-14.7852 85.6382-15.2279 85.2509-15.5664 84.7756-15.8008 84.3003-16.0352 83.7502-16.1523 83.1252-16.1523 82.3179-16.1523 81.5106-15.8659 80.7033-15.293 79.896-14.7201 79.0497-13.8802 78.1643-12.7734L78.1643-0.488281C78.1643-0.384115 78.1382-0.296224 78.0862-0.224609 78.0341-0.152995 77.9494-0.0911458 77.8322-0.0390625 77.7151 0.0130208 77.5523 0.0520833 77.344 0.078125 77.1356 0.104167 76.8687 0.117187 76.5432 0.117188 76.2307 0.117187 75.9703 0.104167 75.7619 0.078125 75.5536 0.0520833 75.3876 0.0130208 75.2639-0.0390625 75.1402-0.0911458 75.0555-0.152995 75.01-0.224609 74.9644-0.296224 74.9416-0.384115 74.9416-0.488281L74.9416-26.582C74.9416-26.6862 74.9644-26.7773 75.01-26.8555 75.0555-26.9336 75.1402-26.9987 75.2639-27.0508 75.3876-27.1029 75.5536-27.1419 75.7619-27.168 75.9703-27.194 76.2307-27.207 76.5432-27.207 76.8687-27.207 77.1356-27.194 77.344-27.168 77.5523-27.1419 77.7151-27.1029 77.8322-27.0508 77.9494-26.9987 78.0341-26.9336 78.0862-26.8555 78.1382-26.7773 78.1643-26.6862 78.1643-26.582L78.1643-16.0547C79.0888-17.0312 80.0197-17.7572 80.9572-18.2324 81.8947-18.7077 82.8388-18.9453 83.7893-18.9453 84.9612-18.9453 85.9475-18.7467 86.7483-18.3496 87.549-17.9525 88.1968-17.4219 88.6916-16.7578 89.1864-16.0938 89.5412-15.3158 89.7561-14.4238 89.9709-13.5319 90.0783-12.4544 90.0783-11.1914ZM109.197-0.46875C109.197-0.3125 109.145-0.195312 109.041-0.117188 108.937-0.0390625 108.793 0.0195312 108.611 0.0585938 108.429 0.0976562 108.162 0.117187 107.81 0.117188 107.472 0.117187 107.202 0.0976562 107 0.0585938 106.798 0.0195312 106.652-0.0390625 106.56-0.117188 106.469-0.195312 106.424-0.3125 106.424-0.46875L106.424-2.22656C105.655-1.40625 104.799-0.768229 103.855-0.3125 102.911 0.143229 101.912 0.371094 100.857 0.371094 99.9328 0.371094 99.0962 0.250651 98.3475 0.00976562 97.5988-0.23112 96.9608-0.579427 96.4335-1.03516 95.9061-1.49089 95.496-2.05078 95.203-2.71484 94.91-3.37891 94.7635-4.13411 94.7635-4.98047 94.7635-5.97005 94.9654-6.82943 95.369-7.55859 95.7727-8.28776 96.3521-8.89323 97.1073-9.375 97.8625-9.85677 98.787-10.2181 99.8807-10.459 100.974-10.6999 102.205-10.8203 103.572-10.8203L105.994-10.8203 105.994-12.1875C105.994-12.8646 105.922-13.4635 105.779-13.9844 105.636-14.5052 105.405-14.9382 105.086-15.2832 104.767-15.6283 104.353-15.8887 103.846-16.0645 103.338-16.2402 102.713-16.3281 101.971-16.3281 101.176-16.3281 100.463-16.2337 99.8319-16.0449 99.2004-15.8561 98.647-15.6478 98.1718-15.4199 97.6965-15.1921 97.2994-14.9837 96.9803-14.7949 96.6613-14.6061 96.4237-14.5117 96.2675-14.5117 96.1633-14.5117 96.0721-14.5378 95.994-14.5898 95.9159-14.6419 95.8475-14.7201 95.7889-14.8242 95.7303-14.9284 95.688-15.0618 95.662-15.2246 95.6359-15.3874 95.6229-15.5664 95.6229-15.7617 95.6229-16.0872 95.6457-16.3444 95.6913-16.5332 95.7369-16.722 95.8475-16.901 96.0233-17.0703 96.1991-17.2396 96.5018-17.4382 96.9315-17.666 97.3612-17.8939 97.856-18.1022 98.4159-18.291 98.9758-18.4798 99.5878-18.6361 100.252-18.7598 100.916-18.8835 101.586-18.9453 102.264-18.9453 103.527-18.9453 104.601-18.8021 105.486-18.5156 106.372-18.2292 107.088-17.8092 107.635-17.2559 108.182-16.7025 108.579-16.0156 108.826-15.1953 109.073-14.375 109.197-13.418 109.197-12.3242ZM105.994-8.49609 103.24-8.49609C102.355-8.49609 101.586-8.42122 100.935-8.27148 100.284-8.12174 99.744-7.90039 99.3143-7.60742 98.8846-7.31445 98.5689-6.96289 98.3671-6.55273 98.1652-6.14258 98.0643-5.67057 98.0643-5.13672 98.0643-4.22526 98.354-3.49935 98.9335-2.95898 99.5129-2.41862 100.323-2.14844 101.365-2.14844 102.211-2.14844 102.996-2.36328 103.719-2.79297 104.441-3.22266 105.2-3.88021 105.994-4.76562ZM126.15-5.27344C126.15-4.375 125.984-3.57422 125.652-2.87109 125.32-2.16797 124.848-1.57552 124.236-1.09375 123.624-0.611979 122.895-0.247396 122.049 0 121.202 0.247396 120.271 0.371094 119.256 0.371094 118.631 0.371094 118.035 0.322266 117.468 0.224609 116.902 0.126953 116.394 0.0032552 115.945-0.146484 115.496-0.296224 115.115-0.452474 114.802-0.615234 114.49-0.777995 114.262-0.924479 114.119-1.05469 113.976-1.1849 113.871-1.36719 113.806-1.60156 113.741-1.83594 113.709-2.15495 113.709-2.55859 113.709-2.80599 113.722-3.01432 113.748-3.18359 113.774-3.35286 113.806-3.48958 113.845-3.59375 113.884-3.69792 113.94-3.77279 114.011-3.81836 114.083-3.86393 114.164-3.88672 114.256-3.88672 114.399-3.88672 114.61-3.79883 114.89-3.62305 115.17-3.44727 115.515-3.25521 115.926-3.04688 116.336-2.83854 116.821-2.64648 117.381-2.4707 117.94-2.29492 118.585-2.20703 119.314-2.20703 119.861-2.20703 120.356-2.26562 120.799-2.38281 121.241-2.5 121.625-2.67253 121.951-2.90039 122.276-3.12826 122.527-3.41797 122.703-3.76953 122.879-4.12109 122.967-4.53776 122.967-5.01953 122.967-5.51432 122.84-5.93099 122.586-6.26953 122.332-6.60807 121.996-6.90755 121.58-7.16797 121.163-7.42838 120.694-7.6595 120.174-7.86133 119.653-8.06315 119.116-8.27474 118.562-8.49609 118.009-8.71745 117.468-8.9681 116.941-9.24805 116.414-9.52799 115.942-9.86979 115.525-10.2734 115.108-10.6771 114.773-11.1589 114.519-11.7188 114.265-12.2786 114.138-12.9492 114.138-13.7305 114.138-14.4206 114.272-15.0814 114.539-15.7129 114.806-16.3444 115.206-16.8978 115.74-17.373 116.274-17.8483 116.941-18.2292 117.742-18.5156 118.543-18.8021 119.477-18.9453 120.545-18.9453 121.013-18.9453 121.482-18.9062 121.951-18.8281 122.42-18.75 122.843-18.6523 123.22-18.5352 123.598-18.418 123.92-18.291 124.187-18.1543 124.454-18.0176 124.656-17.8971 124.793-17.793 124.929-17.6888 125.021-17.5977 125.066-17.5195 125.112-17.4414 125.144-17.3535 125.164-17.2559 125.183-17.1582 125.203-17.0378 125.222-16.8945 125.242-16.7513 125.252-16.5755 125.252-16.3672 125.252-16.1458 125.242-15.9538 125.222-15.791 125.203-15.6283 125.17-15.4948 125.125-15.3906 125.079-15.2865 125.024-15.2116 124.959-15.166 124.894-15.1204 124.822-15.0977 124.744-15.0977 124.627-15.0977 124.457-15.1693 124.236-15.3125 124.015-15.4557 123.728-15.6087 123.377-15.7715 123.025-15.9342 122.612-16.0872 122.136-16.2305 121.661-16.3737 121.118-16.4453 120.506-16.4453 119.959-16.4453 119.477-16.3835 119.06-16.2598 118.644-16.1361 118.302-15.9603 118.035-15.7324 117.768-15.5046 117.566-15.2344 117.429-14.9219 117.293-14.6094 117.224-14.2708 117.224-13.9062 117.224-13.3984 117.355-12.972 117.615-12.627 117.875-12.2819 118.214-11.9792 118.631-11.7188 119.047-11.4583 119.523-11.224 120.056-11.0156 120.59-10.8073 121.134-10.5924 121.687-10.3711 122.241-10.1497 122.787-9.90234 123.328-9.62891 123.868-9.35547 124.347-9.02344 124.763-8.63281 125.18-8.24219 125.515-7.77344 125.769-7.22656 126.023-6.67969 126.15-6.02865 126.15-5.27344ZM145.762-10.0391C145.762-9.53125 145.634-9.16992 145.379-8.95508 145.124-8.74023 144.833-8.63281 144.506-8.63281L132.93-8.63281C132.93-7.65625 133.028-6.77734 133.224-5.99609 133.42-5.21484 133.747-4.54427 134.205-3.98438 134.663-3.42448 135.259-2.99479 135.991-2.69531 136.724-2.39583 137.62-2.24609 138.68-2.24609 139.517-2.24609 140.263-2.31445 140.917-2.45117 141.572-2.58789 142.138-2.74089 142.615-2.91016 143.093-3.07943 143.485-3.23242 143.793-3.36914 144.1-3.50586 144.333-3.57422 144.49-3.57422 144.581-3.57422 144.663-3.55143 144.735-3.50586 144.807-3.46029 144.862-3.39193 144.902-3.30078 144.941-3.20964 144.97-3.08268 144.99-2.91992 145.01-2.75716 145.019-2.55859 145.019-2.32422 145.019-2.15495 145.013-2.00846 145-1.88477 144.987-1.76107 144.971-1.65039 144.951-1.55273 144.932-1.45508 144.899-1.36719 144.853-1.28906 144.808-1.21094 144.749-1.13607 144.678-1.06445 144.606-0.992839 144.394-0.875651 144.043-0.712891 143.691-0.55013 143.236-0.390625 142.676-0.234375 142.116-0.078125 141.468 0.061849 140.732 0.185547 139.997 0.309245 139.212 0.371094 138.379 0.371094 136.934 0.371094 135.667 0.169271 134.58-0.234375 133.493-0.638021 132.578-1.23698 131.836-2.03125 131.094-2.82552 130.534-3.82161 130.156-5.01953 129.779-6.21745 129.59-7.61068 129.59-9.19922 129.59-10.7096 129.785-12.0671 130.176-13.2715 130.566-14.4759 131.129-15.498 131.865-16.3379 132.601-17.1777 133.489-17.8223 134.531-18.2715 135.573-18.7207 136.738-18.9453 138.027-18.9453 139.407-18.9453 140.583-18.724 141.553-18.2812 142.523-17.8385 143.32-17.2428 143.945-16.4941 144.57-15.7454 145.029-14.8665 145.322-13.8574 145.615-12.8483 145.762-11.7708 145.762-10.625ZM142.519-10.9961C142.559-12.6888 142.182-14.0169 141.389-14.9805 140.597-15.944 139.421-16.4258 137.862-16.4258 137.063-16.4258 136.362-16.276 135.759-15.9766 135.157-15.6771 134.652-15.2799 134.246-14.7852 133.84-14.2904 133.526-13.7142 133.303-13.0566 133.08-12.3991 132.956-11.7122 132.93-10.9961Z" fill="#FFFFFF" transform="translate(31.9261 57)"/></g></g><path d="M89 360 327 360 387 420 327 480 89 480 149 420Z" fill="#0D6EFD" fill-rule="evenodd"/><text fill="#FFFFFF" font-family="Calibri,Calibri_MSFontService,sans-serif" font-weight="400" font-size="40" transform="translate(167.926 431)">Purchase</text><g filter="url(#fx2)" transform="translate(350 355)"><g><path d="M7 7 245 7 305 67 245 127 7 127 66.9999 67Z" fill="#B0D0FE" fill-rule="evenodd"/></g></g><g clip-path="url(#clip9)" filter="url(#fx3)" transform="translate(407 376)"><g><path d="M30.8398-0.507812C30.8398-0.403646 30.813-0.3125 30.7594-0.234375 30.7058-0.15625 30.6119-0.094401 30.4778-0.0488281 30.3436-0.00325521 30.1726 0.0358073 29.9648 0.0683594 29.7569 0.100911 29.4854 0.117187 29.1501 0.117188 28.8417 0.117187 28.5768 0.100911 28.3556 0.0683594 28.1343 0.0358073 27.9599-0.00325521 27.8325-0.0488281 27.705-0.094401 27.6145-0.15625 27.5609-0.234375 27.5073-0.3125 27.4805-0.403646 27.4805-0.507812L27.4805-22.5195 27.4414-22.5195 18.5352-0.410156C18.4961-0.31901 18.4408-0.240885 18.3691-0.175781 18.2975-0.110677 18.1934-0.0553385 18.0566-0.00976562 17.9199 0.0358073 17.7572 0.0683594 17.5684 0.0878906 17.3796 0.107422 17.1549 0.117187 16.8945 0.117188 16.6211 0.117187 16.3867 0.104167 16.1914 0.078125 15.9961 0.0520833 15.8333 0.016276 15.7031-0.0292969 15.5729-0.0748698 15.472-0.130208 15.4004-0.195312 15.3288-0.260417 15.2799-0.332031 15.2539-0.410156L6.73828-22.5195 6.71875-22.5195 6.71875-0.507812C6.71875-0.403646 6.69195-0.3125 6.63834-0.234375 6.58473-0.15625 6.49083-0.094401 6.35666-0.0488281 6.22248-0.00325521 6.04813 0.0358073 5.83359 0.0683594 5.61905 0.100911 5.34414 0.117187 5.00885 0.117188 4.68699 0.117187 4.41879 0.100911 4.20425 0.0683594 3.98972 0.0358073 3.81872-0.00325521 3.69125-0.0488281 3.56379-0.094401 3.47661-0.15625 3.42972-0.234375 3.38282-0.3125 3.35938-0.403646 3.35938-0.507812L3.35938-23.75C3.35938-24.2969 3.50479-24.6875 3.79562-24.9219 4.08646-25.1562 4.4104-25.2734 4.76746-25.2734L6.83014-25.2734C7.25311-25.2734 7.62329-25.2344 7.94067-25.1562 8.25806-25.0781 8.53572-24.9544 8.77365-24.7852 9.01159-24.6159 9.2099-24.401 9.36859-24.1406 9.52728-23.8802 9.66614-23.5742 9.78516-23.2227L17.0117-4.92188 17.1094-4.92188 24.6289-23.1641C24.7744-23.5547 24.9331-23.8867 25.1051-24.1602 25.2771-24.4336 25.4657-24.6517 25.6708-24.8145 25.8759-24.9772 26.104-25.0944 26.3553-25.166 26.6065-25.2376 26.8976-25.2734 27.2284-25.2734L29.3912-25.2734C29.5897-25.2734 29.7783-25.2441 29.9568-25.1855 30.1353-25.127 30.2875-25.0358 30.4132-24.9121 30.5389-24.7884 30.6415-24.6322 30.7208-24.4434 30.8002-24.2546 30.8398-24.0234 30.8398-23.75ZM52.1883-10.0391C52.1883-9.53125 52.0608-9.16992 51.8057-8.95508 51.5507-8.74023 51.2596-8.63281 50.9325-8.63281L39.3563-8.63281C39.3563-7.65625 39.4544-6.77734 39.6506-5.99609 39.8468-5.21484 40.1739-4.54427 40.6319-3.98438 41.0899-3.42448 41.6852-2.99479 42.4179-2.69531 43.1507-2.39583 44.0469-2.24609 45.1067-2.24609 45.9441-2.24609 46.6899-2.31445 47.3441-2.45117 47.9983-2.58789 48.5642-2.74089 49.0418-2.91016 49.5194-3.07943 49.9119-3.23242 50.2194-3.36914 50.527-3.50586 50.7592-3.57422 50.9163-3.57422 51.0079-3.57422 51.0896-3.55143 51.1615-3.50586 51.2334-3.46029 51.289-3.39193 51.3283-3.30078 51.3676-3.20964 51.397-3.08268 51.4166-2.91992 51.4363-2.75716 51.4461-2.55859 51.4461-2.32422 51.4461-2.15495 51.4396-2.00846 51.4266-1.88477 51.4135-1.76107 51.3973-1.65039 51.3777-1.55273 51.3582-1.45508 51.3256-1.36719 51.2801-1.28906 51.2345-1.21094 51.1759-1.13607 51.1043-1.06445 51.0327-0.992839 50.8211-0.875651 50.4695-0.712891 50.118-0.55013 49.6622-0.390625 49.1023-0.234375 48.5424-0.078125 47.8947 0.061849 47.159 0.185547 46.4233 0.309245 45.6388 0.371094 44.8055 0.371094 43.3602 0.371094 42.0939 0.169271 41.0066-0.234375 39.9194-0.638021 39.0047-1.23698 38.2625-2.03125 37.5203-2.82552 36.9604-3.82161 36.5828-5.01953 36.2052-6.21745 36.0164-7.61068 36.0164-9.19922 36.0164-10.7096 36.2117-12.0671 36.6023-13.2715 36.993-14.4759 37.5561-15.498 38.2918-16.3379 39.0275-17.1777 39.9161-17.8223 40.9578-18.2715 41.9995-18.7207 43.1648-18.9453 44.4539-18.9453 45.8341-18.9453 47.0092-18.724 47.9793-18.2812 48.9493-17.8385 49.7469-17.2428 50.3719-16.4941 50.9969-15.7454 51.4559-14.8665 51.7488-13.8574 52.0418-12.8483 52.1883-11.7708 52.1883-10.625ZM48.9461-10.9961C48.9852-12.6888 48.6085-14.0169 47.816-14.9805 47.0236-15.944 45.8478-16.4258 44.2888-16.4258 43.4897-16.4258 42.7888-16.276 42.1861-15.9766 41.5835-15.6771 41.0791-15.2799 40.6729-14.7852 40.2667-14.2904 39.9523-13.7142 39.7296-13.0566 39.507-12.3991 39.3825-11.7122 39.3563-10.9961ZM68.1234-5.27344C68.1234-4.375 67.9574-3.57422 67.6254-2.87109 67.2934-2.16797 66.8214-1.57552 66.2094-1.09375 65.5974-0.611979 64.8682-0.247396 64.0219 0 63.1755 0.247396 62.2445 0.371094 61.2289 0.371094 60.6039 0.371094 60.0082 0.322266 59.4418 0.224609 58.8754 0.126953 58.3676 0.0032552 57.9184-0.146484 57.4691-0.296224 57.0883-0.452474 56.7758-0.615234 56.4633-0.777995 56.2354-0.924479 56.0922-1.05469 55.949-1.1849 55.8448-1.36719 55.7797-1.60156 55.7146-1.83594 55.682-2.15495 55.682-2.55859 55.682-2.80599 55.695-3.01432 55.7211-3.18359 55.7471-3.35286 55.7797-3.48958 55.8187-3.59375 55.8578-3.69792 55.9131-3.77279 55.9848-3.81836 56.0564-3.86393 56.1378-3.88672 56.2289-3.88672 56.3721-3.88672 56.5837-3.79883 56.8637-3.62305 57.1436-3.44727 57.4887-3.25521 57.8988-3.04688 58.309-2.83854 58.794-2.64648 59.3539-2.4707 59.9138-2.29492 60.5583-2.20703 61.2875-2.20703 61.8344-2.20703 62.3292-2.26562 62.7719-2.38281 63.2146-2.5 63.5987-2.67253 63.9242-2.90039 64.2497-3.12826 64.5004-3.41797 64.6762-3.76953 64.8519-4.12109 64.9398-4.53776 64.9398-5.01953 64.9398-5.51432 64.8129-5.93099 64.559-6.26953 64.3051-6.60807 63.9698-6.90755 63.5531-7.16797 63.1365-7.42838 62.6677-7.6595 62.1469-7.86133 61.626-8.06315 61.0889-8.27474 60.5355-8.49609 59.9822-8.71745 59.4418-8.9681 58.9145-9.24805 58.3871-9.52799 57.9151-9.86979 57.4984-10.2734 57.0818-10.6771 56.7465-11.1589 56.4926-11.7188 56.2387-12.2786 56.1117-12.9492 56.1117-13.7305 56.1117-14.4206 56.2452-15.0814 56.5121-15.7129 56.779-16.3444 57.1794-16.8978 57.7133-17.373 58.2471-17.8483 58.9145-18.2292 59.7152-18.5156 60.516-18.8021 61.4503-18.9453 62.518-18.9453 62.9867-18.9453 63.4555-18.9062 63.9242-18.8281 64.393-18.75 64.8161-18.6523 65.1937-18.5352 65.5714-18.418 65.8936-18.291 66.1605-18.1543 66.4275-18.0176 66.6293-17.8971 66.766-17.793 66.9027-17.6888 66.9939-17.5977 67.0395-17.5195 67.085-17.4414 67.1176-17.3535 67.1371-17.2559 67.1566-17.1582 67.1762-17.0378 67.1957-16.8945 67.2152-16.7513 67.225-16.5755 67.225-16.3672 67.225-16.1458 67.2152-15.9538 67.1957-15.791 67.1762-15.6283 67.1436-15.4948 67.098-15.3906 67.0525-15.2865 66.9971-15.2116 66.932-15.166 66.8669-15.1204 66.7953-15.0977 66.7172-15.0977 66.6-15.0977 66.4307-15.1693 66.2094-15.3125 65.988-15.4557 65.7016-15.6087 65.35-15.7715 64.9984-15.9342 64.585-16.0872 64.1098-16.2305 63.6345-16.3737 63.0909-16.4453 62.4789-16.4453 61.932-16.4453 61.4503-16.3835 61.0336-16.2598 60.6169-16.1361 60.2751-15.9603 60.0082-15.7324 59.7413-15.5046 59.5394-15.2344 59.4027-14.9219 59.266-14.6094 59.1977-14.2708 59.1977-13.9062 59.1977-13.3984 59.3279-12.972 59.5883-12.627 59.8487-12.2819 60.1872-11.9792 60.6039-11.7188 61.0206-11.4583 61.4958-11.224 62.0297-11.0156 62.5635-10.8073 63.1072-10.5924 63.6605-10.3711 64.2139-10.1497 64.7608-9.90234 65.3012-9.62891 65.8415-9.35547 66.32-9.02344 66.7367-8.63281 67.1534-8.24219 67.4887-7.77344 67.7426-7.22656 67.9965-6.67969 68.1234-6.02865 68.1234-5.27344ZM83.7701-5.27344C83.7701-4.375 83.6041-3.57422 83.2721-2.87109 82.94-2.16797 82.468-1.57552 81.856-1.09375 81.2441-0.611979 80.5149-0.247396 79.6685 0 78.8222 0.247396 77.8912 0.371094 76.8756 0.371094 76.2506 0.371094 75.6549 0.322266 75.0885 0.224609 74.522 0.126953 74.0142 0.0032552 73.565-0.146484 73.1158-0.296224 72.7349-0.452474 72.4224-0.615234 72.1099-0.777995 71.8821-0.924479 71.7389-1.05469 71.5956-1.1849 71.4915-1.36719 71.4264-1.60156 71.3613-1.83594 71.3287-2.15495 71.3287-2.55859 71.3287-2.80599 71.3417-3.01432 71.3678-3.18359 71.3938-3.35286 71.4264-3.48958 71.4654-3.59375 71.5045-3.69792 71.5598-3.77279 71.6314-3.81836 71.703-3.86393 71.7844-3.88672 71.8756-3.88672 72.0188-3.88672 72.2304-3.79883 72.5103-3.62305 72.7903-3.44727 73.1353-3.25521 73.5455-3.04688 73.9557-2.83854 74.4407-2.64648 75.0006-2.4707 75.5605-2.29492 76.205-2.20703 76.9342-2.20703 77.481-2.20703 77.9758-2.26562 78.4185-2.38281 78.8613-2.5 79.2454-2.67253 79.5709-2.90039 79.8964-3.12826 80.147-3.41797 80.3228-3.76953 80.4986-4.12109 80.5865-4.53776 80.5865-5.01953 80.5865-5.51432 80.4595-5.93099 80.2057-6.26953 79.9517-6.60807 79.6165-6.90755 79.1998-7.16797 78.7831-7.42838 78.3144-7.6595 77.7935-7.86133 77.2727-8.06315 76.7356-8.27474 76.1822-8.49609 75.6288-8.71745 75.0885-8.9681 74.5611-9.24805 74.0338-9.52799 73.5618-9.86979 73.1451-10.2734 72.7284-10.6771 72.3932-11.1589 72.1392-11.7188 71.8853-12.2786 71.7584-12.9492 71.7584-13.7305 71.7584-14.4206 71.8918-15.0814 72.1588-15.7129 72.4257-16.3444 72.8261-16.8978 73.3599-17.373 73.8938-17.8483 74.5611-18.2292 75.3619-18.5156 76.1627-18.8021 77.0969-18.9453 78.1646-18.9453 78.6334-18.9453 79.1021-18.9062 79.5709-18.8281 80.0396-18.75 80.4628-18.6523 80.8404-18.5352 81.218-18.418 81.5403-18.291 81.8072-18.1543 82.0741-18.0176 82.276-17.8971 82.4127-17.793 82.5494-17.6888 82.6405-17.5977 82.6861-17.5195 82.7317-17.4414 82.7642-17.3535 82.7838-17.2559 82.8033-17.1582 82.8228-17.0378 82.8424-16.8945 82.8619-16.7513 82.8717-16.5755 82.8717-16.3672 82.8717-16.1458 82.8619-15.9538 82.8424-15.791 82.8228-15.6283 82.7903-15.4948 82.7447-15.3906 82.6991-15.2865 82.6438-15.2116 82.5787-15.166 82.5136-15.1204 82.442-15.0977 82.3639-15.0977 82.2467-15.0977 82.0774-15.1693 81.856-15.3125 81.6347-15.4557 81.3482-15.6087 80.9967-15.7715 80.6451-15.9342 80.2317-16.0872 79.7564-16.2305 79.2812-16.3737 78.7375-16.4453 78.1256-16.4453 77.5787-16.4453 77.0969-16.3835 76.6803-16.2598 76.2636-16.1361 75.9218-15.9603 75.6549-15.7324 75.3879-15.5046 75.1861-15.2344 75.0494-14.9219 74.9127-14.6094 74.8443-14.2708 74.8443-13.9062 74.8443-13.3984 74.9745-12.972 75.2349-12.627 75.4954-12.2819 75.8339-11.9792 76.2506-11.7188 76.6672-11.4583 77.1425-11.224 77.6764-11.0156 78.2102-10.8073 78.7538-10.5924 79.3072-10.3711 79.8606-10.1497 80.4075-9.90234 80.9478-9.62891 81.4882-9.35547 81.9667-9.02344 82.3834-8.63281 82.8-8.24219 83.1353-7.77344 83.3892-7.22656 83.6432-6.67969 83.7701-6.02865 83.7701-5.27344ZM101.624-0.46875C101.624-0.3125 101.572-0.195312 101.468-0.117188 101.363-0.0390625 101.22 0.0195312 101.038 0.0585938 100.856 0.0976562 100.589 0.117187 100.237 0.117188 99.8985 0.117187 99.6284 0.0976562 99.4265 0.0585938 99.2247 0.0195312 99.0782-0.0390625 98.9871-0.117188 98.8959-0.195312 98.8504-0.3125 98.8504-0.46875L98.8504-2.22656C98.0821-1.40625 97.226-0.768229 96.282-0.3125 95.338 0.143229 94.3386 0.371094 93.284 0.371094 92.3595 0.371094 91.5229 0.250651 90.7742 0.00976562 90.0255-0.23112 89.3875-0.579427 88.8601-1.03516 88.3328-1.49089 87.9226-2.05078 87.6297-2.71484 87.3367-3.37891 87.1902-4.13411 87.1902-4.98047 87.1902-5.97005 87.392-6.82943 87.7957-7.55859 88.1993-8.28776 88.7787-8.89323 89.534-9.375 90.2892-9.85677 91.2136-10.2181 92.3074-10.459 93.4011-10.6999 94.6316-10.8203 95.9988-10.8203L98.4207-10.8203 98.4207-12.1875C98.4207-12.8646 98.3491-13.4635 98.2058-13.9844 98.0626-14.5052 97.8315-14.9382 97.5125-15.2832 97.1935-15.6283 96.78-15.8887 96.2722-16.0645 95.7644-16.2402 95.1394-16.3281 94.3972-16.3281 93.603-16.3281 92.8901-16.2337 92.2586-16.0449 91.6271-15.8561 91.0737-15.6478 90.5984-15.4199 90.1231-15.1921 89.726-14.9837 89.407-14.7949 89.088-14.6061 88.8504-14.5117 88.6941-14.5117 88.5899-14.5117 88.4988-14.5378 88.4207-14.5898 88.3425-14.6419 88.2742-14.7201 88.2156-14.8242 88.157-14.9284 88.1147-15.0618 88.0886-15.2246 88.0626-15.3874 88.0496-15.5664 88.0496-15.7617 88.0496-16.0872 88.0724-16.3444 88.1179-16.5332 88.1635-16.722 88.2742-16.901 88.45-17.0703 88.6257-17.2396 88.9285-17.4382 89.3582-17.666 89.7879-17.8939 90.2827-18.1022 90.8426-18.291 91.4024-18.4798 92.0144-18.6361 92.6785-18.7598 93.3425-18.8835 94.0131-18.9453 94.6902-18.9453 95.9532-18.9453 97.0275-18.8021 97.9129-18.5156 98.7983-18.2292 99.5144-17.8092 100.061-17.2559 100.608-16.7025 101.005-16.0156 101.253-15.1953 101.5-14.375 101.624-13.418 101.624-12.3242ZM98.4207-8.49609 95.6668-8.49609C94.7813-8.49609 94.0131-8.42122 93.3621-8.27148 92.711-8.12174 92.1707-7.90039 91.741-7.60742 91.3113-7.31445 90.9955-6.96289 90.7937-6.55273 90.5919-6.14258 90.491-5.67057 90.491-5.13672 90.491-4.22526 90.7807-3.49935 91.3601-2.95898 91.9396-2.41862 92.7501-2.14844 93.7918-2.14844 94.6381-2.14844 95.4226-2.36328 96.1453-2.79297 96.8679-3.22266 97.6264-3.88021 98.4207-4.76562ZM122.229-17.2656C122.229-16.8099 122.167-16.4811 122.044-16.2793 121.92-16.0775 121.76-15.9766 121.565-15.9766L119.046-15.9766C119.501-15.5078 119.82-14.9902 120.003-14.4238 120.185-13.8574 120.276-13.2682 120.276-12.6562 120.276-11.6406 120.113-10.7422 119.788-9.96094 119.462-9.17969 118.997-8.51888 118.391-7.97852 117.786-7.43815 117.066-7.02474 116.233-6.73828 115.4-6.45182 114.475-6.30859 113.46-6.30859 112.743-6.30859 112.063-6.40299 111.419-6.5918 110.774-6.7806 110.276-7.01823 109.924-7.30469 109.69-7.07031 109.498-6.80339 109.348-6.50391 109.199-6.20443 109.124-5.85938 109.124-5.46875 109.124-5.01302 109.335-4.63542 109.758-4.33594 110.182-4.03646 110.745-3.8737 111.448-3.84766L116.038-3.65234C116.91-3.6263 117.711-3.50586 118.44-3.29102 119.169-3.07617 119.801-2.77018 120.335-2.37305 120.868-1.97591 121.285-1.48763 121.585-0.908203 121.884-0.328776 122.034 0.345052 122.034 1.11328 122.034 1.92057 121.865 2.6888 121.526 3.41797 121.187 4.14714 120.67 4.78841 119.973 5.3418 119.277 5.89518 118.388 6.33138 117.307 6.65039 116.227 6.9694 114.95 7.12891 113.479 7.12891 112.06 7.12891 110.852 7.00846 109.856 6.76758 108.86 6.52669 108.043 6.19792 107.405 5.78125 106.767 5.36458 106.305 4.86654 106.018 4.28711 105.732 3.70768 105.588 3.07943 105.588 2.40234 105.588 1.97266 105.641 1.55599 105.745 1.15234 105.849 0.748698 106.008 0.364583 106.223 0 106.438-0.364583 106.705-0.712891 107.024-1.04492 107.343-1.37695 107.711-1.70573 108.128-2.03125 107.49-2.35677 107.018-2.76693 106.712-3.26172 106.406-3.75651 106.253-4.29036 106.253-4.86328 106.253-5.65755 106.415-6.36719 106.741-6.99219 107.066-7.61719 107.47-8.17708 107.952-8.67188 107.548-9.15365 107.229-9.69727 106.995-10.3027 106.76-10.9082 106.643-11.6406 106.643-12.5 106.643-13.5026 106.812-14.401 107.151-15.1953 107.49-15.9896 107.958-16.6602 108.557-17.207 109.156-17.7539 109.876-18.1738 110.715-18.4668 111.555-18.7598 112.47-18.9062 113.46-18.9062 113.993-18.9062 114.491-18.877 114.954-18.8184 115.416-18.7598 115.849-18.6784 116.253-18.5742L121.565-18.5742C121.786-18.5742 121.952-18.4668 122.063-18.252 122.174-18.0371 122.229-17.7083 122.229-17.2656ZM117.19-12.6367C117.19-13.8346 116.861-14.7689 116.204-15.4395 115.546-16.11 114.612-16.4453 113.401-16.4453 112.776-16.4453 112.232-16.3411 111.77-16.1328 111.308-15.9245 110.924-15.638 110.618-15.2734 110.312-14.9089 110.084-14.4889 109.934-14.0137 109.784-13.5384 109.71-13.0404 109.71-12.5195 109.71-11.3607 110.038-10.4492 110.696-9.78516 111.353-9.12109 112.275-8.78906 113.46-8.78906 114.098-8.78906 114.651-8.88997 115.12-9.0918 115.588-9.29362 115.976-9.57357 116.282-9.93164 116.588-10.2897 116.816-10.7031 116.965-11.1719 117.115-11.6406 117.19-12.1289 117.19-12.6367ZM118.811 1.28906C118.811 0.533854 118.502-0.0488281 117.883-0.458984 117.265-0.869141 116.428-1.08724 115.374-1.11328L110.823-1.26953C110.406-0.94401 110.064-0.634766 109.797-0.341797 109.531-0.0488281 109.319 0.23112 109.163 0.498047 109.006 0.764974 108.899 1.02865 108.84 1.28906 108.782 1.54948 108.753 1.81641 108.753 2.08984 108.753 2.9362 109.182 3.57747 110.042 4.01367 110.901 4.44987 112.099 4.66797 113.635 4.66797 114.612 4.66797 115.429 4.57357 116.087 4.38477 116.744 4.19596 117.275 3.94531 117.678 3.63281 118.082 3.32031 118.372 2.96224 118.547 2.55859 118.723 2.15495 118.811 1.73177 118.811 1.28906ZM141.035-10.0391C141.035-9.53125 140.907-9.16992 140.652-8.95508 140.397-8.74023 140.106-8.63281 139.779-8.63281L128.203-8.63281C128.203-7.65625 128.301-6.77734 128.497-5.99609 128.693-5.21484 129.021-4.54427 129.479-3.98438 129.937-3.42448 130.532-2.99479 131.265-2.69531 131.997-2.39583 132.894-2.24609 133.953-2.24609 134.791-2.24609 135.537-2.31445 136.191-2.45117 136.845-2.58789 137.411-2.74089 137.888-2.91016 138.366-3.07943 138.759-3.23242 139.066-3.36914 139.374-3.50586 139.606-3.57422 139.763-3.57422 139.855-3.57422 139.936-3.55143 140.008-3.50586 140.08-3.46029 140.136-3.39193 140.175-3.30078 140.214-3.20964 140.244-3.08268 140.263-2.91992 140.283-2.75716 140.293-2.55859 140.293-2.32422 140.293-2.15495 140.286-2.00846 140.273-1.88477 140.26-1.76107 140.244-1.65039 140.224-1.55273 140.205-1.45508 140.172-1.36719 140.127-1.28906 140.081-1.21094 140.023-1.13607 139.951-1.06445 139.879-0.992839 139.668-0.875651 139.316-0.712891 138.965-0.55013 138.509-0.390625 137.949-0.234375 137.389-0.078125 136.741 0.061849 136.006 0.185547 135.27 0.309245 134.485 0.371094 133.652 0.371094 132.207 0.371094 130.941 0.169271 129.853-0.234375 128.766-0.638021 127.851-1.23698 127.109-2.03125 126.367-2.82552 125.807-3.82161 125.429-5.01953 125.052-6.21745 124.863-7.61068 124.863-9.19922 124.863-10.7096 125.058-12.0671 125.449-13.2715 125.84-14.4759 126.403-15.498 127.138-16.3379 127.874-17.1777 128.763-17.8223 129.804-18.2715 130.846-18.7207 132.012-18.9453 133.301-18.9453 134.681-18.9453 135.856-18.724 136.826-18.2812 137.796-17.8385 138.594-17.2428 139.219-16.4941 139.844-15.7454 140.303-14.8665 140.595-13.8574 140.888-12.8483 141.035-11.7708 141.035-10.625ZM137.793-10.9961C137.832-12.6888 137.455-14.0169 136.663-14.9805 135.87-15.944 134.695-16.4258 133.135-16.4258 132.336-16.4258 131.635-16.276 131.033-15.9766 130.43-15.6771 129.926-15.2799 129.52-14.7852 129.113-14.2904 128.799-13.7142 128.576-13.0566 128.354-12.3991 128.229-11.7122 128.203-10.9961Z" fill="#FFFFFF" transform="translate(31.5808 57)"/></g></g><path d="M357 360 595 360 655 420 595 480 357 480 417 420Z" fill="#B0D0FE" fill-rule="evenodd"/><text fill="#FFFFFF" font-family="Calibri,Calibri_MSFontService,sans-serif" font-weight="400" font-size="40" transform="translate(438.581 431)">Message</text><g filter="url(#fx4)" transform="translate(618 355)"><g><path d="M7 7 245 7 305 67 245 127 7 127 66.9999 67Z" fill="#B0D0FE" fill-rule="evenodd"/></g></g><g clip-path="url(#clip10)" filter="url(#fx5)" transform="translate(695 376)"><g><path d="M20.2148-0.507812C20.2148-0.403646 20.1953-0.3125 20.1562-0.234375 20.1172-0.15625 20.0326-0.0911458 19.9023-0.0390625 19.7721 0.0130208 19.5898 0.0520833 19.3555 0.078125 19.1211 0.104167 18.8086 0.117187 18.418 0.117188 18.0794 0.117187 17.8027 0.104167 17.5879 0.078125 17.373 0.0520833 17.2005 0.00976562 17.0703-0.0488281 16.9401-0.107422 16.8392-0.188802 16.7676-0.292969 16.696-0.397135 16.6341-0.527344 16.582-0.683594L14.2578-6.64062C13.9844-7.31771 13.7012-7.93945 13.4082-8.50586 13.1152-9.07227 12.7669-9.56055 12.3633-9.9707 11.9596-10.3809 11.4844-10.6999 10.9375-10.9277 10.3906-11.1556 9.73307-11.2695 8.96484-11.2695L6.71875-11.2695 6.71875-0.507812C6.71875-0.403646 6.68945-0.3125 6.63086-0.234375 6.57227-0.15625 6.48112-0.094401 6.35742-0.0488281 6.23372-0.00325521 6.06445 0.0358073 5.84961 0.0683594 5.63477 0.100911 5.36458 0.117187 5.03906 0.117188 4.71354 0.117187 4.44336 0.100911 4.22852 0.0683594 4.01367 0.0358073 3.84115-0.00325521 3.71094-0.0488281 3.58073-0.094401 3.48958-0.15625 3.4375-0.234375 3.38542-0.3125 3.35938-0.403646 3.35938-0.507812L3.35938-23.9062C3.35938-24.4141 3.49284-24.7689 3.75977-24.9707 4.02669-25.1725 4.3099-25.2734 4.60938-25.2734L9.98047-25.2734C10.6185-25.2734 11.1491-25.2572 11.5723-25.2246 11.9954-25.1921 12.3763-25.1562 12.7148-25.1172 13.6914-24.9479 14.554-24.681 15.3027-24.3164 16.0514-23.9518 16.6797-23.4896 17.1875-22.9297 17.6953-22.3698 18.0762-21.7285 18.3301-21.0059 18.584-20.2832 18.7109-19.4857 18.7109-18.6133 18.7109-17.7669 18.597-17.0085 18.3691-16.3379 18.1413-15.6673 17.8125-15.0749 17.3828-14.5605 16.9531-14.0462 16.4388-13.6003 15.8398-13.2227 15.2409-12.8451 14.5703-12.526 13.8281-12.2656 14.2448-12.0833 14.6224-11.8522 14.9609-11.5723 15.2995-11.2923 15.6152-10.957 15.9082-10.5664 16.2012-10.1758 16.4779-9.72656 16.7383-9.21875 16.9987-8.71094 17.2591-8.13802 17.5195-7.5L19.7852-1.93359C19.9674-1.46484 20.0846-1.13607 20.1367-0.947266 20.1888-0.758464 20.2148-0.611979 20.2148-0.507812ZM15.1562-18.2617C15.1562-19.2513 14.9349-20.0879 14.4922-20.7715 14.0495-21.4551 13.3073-21.9466 12.2656-22.2461 11.9401-22.3372 11.5723-22.4023 11.1621-22.4414 10.752-22.4805 10.2148-22.5 9.55078-22.5L6.71875-22.5 6.71875-13.9844 10-13.9844C10.8854-13.9844 11.6504-14.0918 12.2949-14.3066 12.9395-14.5215 13.4766-14.821 13.9062-15.2051 14.3359-15.5892 14.6517-16.0417 14.8535-16.5625 15.0553-17.0833 15.1562-17.6497 15.1562-18.2617ZM37.9505-0.46875C37.9505-0.3125 37.8984-0.195312 37.7942-0.117188 37.6901-0.0390625 37.5468 0.0195312 37.3645 0.0585938 37.1822 0.0976562 36.9153 0.117187 36.5638 0.117188 36.2252 0.117187 35.955 0.0976562 35.7532 0.0585938 35.5514 0.0195312 35.4049-0.0390625 35.3138-0.117188 35.2226-0.195312 35.177-0.3125 35.177-0.46875L35.177-2.22656C34.4088-1.40625 33.5527-0.768229 32.6087-0.3125 31.6647 0.143229 30.6653 0.371094 29.6106 0.371094 28.6861 0.371094 27.8496 0.250651 27.1009 0.00976562 26.3522-0.23112 25.7141-0.579427 25.1868-1.03516 24.6595-1.49089 24.2493-2.05078 23.9563-2.71484 23.6634-3.37891 23.5169-4.13411 23.5169-4.98047 23.5169-5.97005 23.7187-6.82943 24.1223-7.55859 24.526-8.28776 25.1054-8.89323 25.8606-9.375 26.6158-9.85677 27.5403-10.2181 28.6341-10.459 29.7278-10.6999 30.9583-10.8203 32.3255-10.8203L34.7473-10.8203 34.7473-12.1875C34.7473-12.8646 34.6757-13.4635 34.5325-13.9844 34.3893-14.5052 34.1581-14.9382 33.8391-15.2832 33.5201-15.6283 33.1067-15.8887 32.5989-16.0645 32.0911-16.2402 31.4661-16.3281 30.7239-16.3281 29.9296-16.3281 29.2167-16.2337 28.5852-16.0449 27.9537-15.8561 27.4003-15.6478 26.9251-15.4199 26.4498-15.1921 26.0527-14.9837 25.7337-14.7949 25.4147-14.6061 25.177-14.5117 25.0208-14.5117 24.9166-14.5117 24.8255-14.5378 24.7473-14.5898 24.6692-14.6419 24.6009-14.7201 24.5423-14.8242 24.4837-14.9284 24.4414-15.0618 24.4153-15.2246 24.3893-15.3874 24.3763-15.5664 24.3763-15.7617 24.3763-16.0872 24.399-16.3444 24.4446-16.5332 24.4902-16.722 24.6009-16.901 24.7766-17.0703 24.9524-17.2396 25.2552-17.4382 25.6848-17.666 26.1145-17.8939 26.6093-18.1022 27.1692-18.291 27.7291-18.4798 28.3411-18.6361 29.0052-18.7598 29.6692-18.8835 30.3398-18.9453 31.0169-18.9453 32.2799-18.9453 33.3541-18.8021 34.2395-18.5156 35.1249-18.2292 35.8411-17.8092 36.388-17.2559 36.9348-16.7025 37.332-16.0156 37.5794-15.1953 37.8268-14.375 37.9505-13.418 37.9505-12.3242ZM34.7473-8.49609 31.9934-8.49609C31.108-8.49609 30.3398-8.42122 29.6888-8.27148 29.0377-8.12174 28.4973-7.90039 28.0677-7.60742 27.638-7.31445 27.3222-6.96289 27.1204-6.55273 26.9186-6.14258 26.8177-5.67057 26.8177-5.13672 26.8177-4.22526 27.1074-3.49935 27.6868-2.95898 28.2662-2.41862 29.0768-2.14844 30.1184-2.14844 30.9648-2.14844 31.7493-2.36328 32.472-2.79297 33.1946-3.22266 33.9531-3.88021 34.7473-4.76562ZM52.6356-1.77734C52.6356-1.39974 52.6095-1.10026 52.5574-0.878906 52.5054-0.657552 52.4272-0.494792 52.3231-0.390625 52.2189-0.286458 52.0627-0.188802 51.8543-0.0976562 51.646-0.00651042 51.4084 0.0683594 51.1414 0.126953 50.8745 0.185547 50.5913 0.234375 50.2918 0.273438 49.9923 0.3125 49.6929 0.332031 49.3934 0.332031 48.4819 0.332031 47.7007 0.211589 47.0496-0.0292969 46.3986-0.270182 45.8647-0.634766 45.4481-1.12305 45.0314-1.61133 44.7287-2.22982 44.5399-2.97852 44.3511-3.72721 44.2567-4.60938 44.2567-5.625L44.2567-15.8984 41.7957-15.8984C41.6004-15.8984 41.4442-16.0026 41.327-16.2109 41.2098-16.4193 41.1512-16.7578 41.1512-17.2266 41.1512-17.474 41.1675-17.6823 41.2-17.8516 41.2326-18.0208 41.2749-18.1608 41.327-18.2715 41.3791-18.3822 41.4474-18.4603 41.5321-18.5059 41.6167-18.5514 41.7111-18.5742 41.8153-18.5742L44.2567-18.5742 44.2567-22.7539C44.2567-22.8451 44.2795-22.9297 44.325-23.0078 44.3706-23.0859 44.4552-23.1543 44.5789-23.2129 44.7026-23.2715 44.8686-23.3138 45.077-23.3398 45.2853-23.3659 45.5457-23.3789 45.8582-23.3789 46.1838-23.3789 46.4507-23.3659 46.659-23.3398 46.8673-23.3138 47.0301-23.2715 47.1473-23.2129 47.2645-23.1543 47.3491-23.0859 47.4012-23.0078 47.4533-22.9297 47.4793-22.8451 47.4793-22.7539L47.4793-18.5742 51.991-18.5742C52.0952-18.5742 52.1864-18.5514 52.2645-18.5059 52.3426-18.4603 52.411-18.3822 52.4696-18.2715 52.5281-18.1608 52.5705-18.0208 52.5965-17.8516 52.6226-17.6823 52.6356-17.474 52.6356-17.2266 52.6356-16.7578 52.577-16.4193 52.4598-16.2109 52.3426-16.0026 52.1864-15.8984 51.991-15.8984L47.4793-15.8984 47.4793-6.09375C47.4793-4.88281 47.6584-3.9681 48.0164-3.34961 48.3745-2.73112 49.0158-2.42188 49.9403-2.42188 50.2397-2.42188 50.5067-2.45117 50.741-2.50977 50.9754-2.56836 51.1837-2.63021 51.366-2.69531 51.5483-2.76042 51.7046-2.82227 51.8348-2.88086 51.965-2.93945 52.0822-2.96875 52.1864-2.96875 52.2515-2.96875 52.3133-2.95247 52.3719-2.91992 52.4305-2.88737 52.4761-2.82552 52.5086-2.73438 52.5412-2.64323 52.5705-2.51953 52.5965-2.36328 52.6226-2.20703 52.6356-2.01172 52.6356-1.77734ZM60.1176-0.488281C60.1176-0.384115 60.0916-0.296224 60.0395-0.224609 59.9874-0.152995 59.9028-0.0911458 59.7856-0.0390625 59.6684 0.0130208 59.5056 0.0520833 59.2973 0.078125 59.089 0.104167 58.822 0.117187 58.4965 0.117188 58.184 0.117187 57.9236 0.104167 57.7153 0.078125 57.5069 0.0520833 57.3409 0.0130208 57.2172-0.0390625 57.0935-0.0911458 57.0089-0.152995 56.9633-0.224609 56.9177-0.296224 56.895-0.384115 56.895-0.488281L56.895-18.0664C56.895-18.1576 56.9177-18.2422 56.9633-18.3203 57.0089-18.3984 57.0935-18.4635 57.2172-18.5156 57.3409-18.5677 57.5069-18.6068 57.7153-18.6328 57.9236-18.6589 58.184-18.6719 58.4965-18.6719 58.822-18.6719 59.089-18.6589 59.2973-18.6328 59.5056-18.6068 59.6684-18.5677 59.7856-18.5156 59.9028-18.4635 59.9874-18.3984 60.0395-18.3203 60.0916-18.2422 60.1176-18.1576 60.1176-18.0664ZM60.4887-24.0039C60.4887-23.2487 60.3455-22.7344 60.059-22.4609 59.7726-22.1875 59.2452-22.0508 58.477-22.0508 57.7218-22.0508 57.2042-22.1842 56.9242-22.4512 56.6443-22.7181 56.5043-23.2227 56.5043-23.9648 56.5043-24.7201 56.6476-25.2344 56.934-25.5078 57.2205-25.7812 57.7478-25.918 58.516-25.918 59.2713-25.918 59.7888-25.7845 60.0688-25.5176 60.3487-25.2507 60.4887-24.7461 60.4887-24.0039ZM81.2117-0.488281C81.2117-0.384115 81.1856-0.296224 81.1335-0.224609 81.0815-0.152995 80.9968-0.0911458 80.8796-0.0390625 80.7625 0.0130208 80.5997 0.0520833 80.3914 0.078125 80.183 0.104167 79.9226 0.117187 79.6101 0.117188 79.2846 0.117187 79.0177 0.104167 78.8093 0.078125 78.601 0.0520833 78.4382 0.0130208 78.321-0.0390625 78.2039-0.0911458 78.1192-0.152995 78.0671-0.224609 78.0151-0.296224 77.989-0.384115 77.989-0.488281L77.989-10.7812C77.989-11.7839 77.9109-12.5911 77.7546-13.2031 77.5984-13.8151 77.3705-14.3424 77.071-14.7852 76.7716-15.2279 76.3842-15.5664 75.9089-15.8008 75.4337-16.0352 74.8835-16.1523 74.2585-16.1523 73.4512-16.1523 72.644-15.8659 71.8367-15.293 71.0294-14.7201 70.183-13.8802 69.2976-12.7734L69.2976-0.488281C69.2976-0.384115 69.2716-0.296224 69.2195-0.224609 69.1674-0.152995 69.0828-0.0911458 68.9656-0.0390625 68.8484 0.0130208 68.6856 0.0520833 68.4773 0.078125 68.269 0.104167 68.002 0.117187 67.6765 0.117188 67.364 0.117187 67.1036 0.104167 66.8953 0.078125 66.6869 0.0520833 66.5209 0.0130208 66.3972-0.0390625 66.2735-0.0911458 66.1889-0.152995 66.1433-0.224609 66.0977-0.296224 66.075-0.384115 66.075-0.488281L66.075-18.0664C66.075-18.1706 66.0945-18.2585 66.1335-18.3301 66.1726-18.4017 66.2507-18.4668 66.3679-18.5254 66.4851-18.584 66.6348-18.623 66.8171-18.6426 66.9994-18.6621 67.2403-18.6719 67.5398-18.6719 67.8262-18.6719 68.0639-18.6621 68.2527-18.6426 68.4415-18.623 68.588-18.584 68.6921-18.5254 68.7963-18.4668 68.8712-18.4017 68.9167-18.3301 68.9623-18.2585 68.9851-18.1706 68.9851-18.0664L68.9851-15.7422C69.9747-16.849 70.961-17.6595 71.9441-18.1738 72.9272-18.6882 73.92-18.9453 74.9226-18.9453 76.0945-18.9453 77.0808-18.7467 77.8816-18.3496 78.6824-17.9525 79.3302-17.4219 79.825-16.7578 80.3197-16.0938 80.6746-15.3158 80.8894-14.4238 81.1042-13.5319 81.2117-12.4609 81.2117-11.2109ZM101.776-17.2656C101.776-16.8099 101.714-16.4811 101.59-16.2793 101.467-16.0775 101.307-15.9766 101.112-15.9766L98.5922-15.9766C99.0479-15.5078 99.3669-14.9902 99.5492-14.4238 99.7315-13.8574 99.8227-13.2682 99.8227-12.6562 99.8227-11.6406 99.6599-10.7422 99.3344-9.96094 99.0089-9.17969 98.5434-8.51888 97.9379-7.97852 97.3324-7.43815 96.613-7.02474 95.7797-6.73828 94.9464-6.45182 94.0219-6.30859 93.0063-6.30859 92.2901-6.30859 91.6098-6.40299 90.9652-6.5918 90.3207-6.7806 89.8227-7.01823 89.4711-7.30469 89.2367-7.07031 89.0447-6.80339 88.8949-6.50391 88.7452-6.20443 88.6703-5.85938 88.6703-5.46875 88.6703-5.01302 88.8819-4.63542 89.3051-4.33594 89.7283-4.03646 90.2914-3.8737 90.9945-3.84766L95.5844-3.65234C96.4568-3.6263 97.2576-3.50586 97.9867-3.29102 98.7159-3.07617 99.3474-2.77018 99.8813-2.37305 100.415-1.97591 100.832-1.48763 101.131-0.908203 101.431-0.328776 101.58 0.345052 101.58 1.11328 101.58 1.92057 101.411 2.6888 101.073 3.41797 100.734 4.14714 100.217 4.78841 99.5199 5.3418 98.8233 5.89518 97.9346 6.33138 96.8539 6.65039 95.7732 6.9694 94.4971 7.12891 93.0258 7.12891 91.6065 7.12891 90.3988 7.00846 89.4027 6.76758 88.4066 6.52669 87.5896 6.19792 86.9516 5.78125 86.3135 5.36458 85.8513 4.86654 85.5648 4.28711 85.2784 3.70768 85.1352 3.07943 85.1352 2.40234 85.1352 1.97266 85.1872 1.55599 85.2914 1.15234 85.3956 0.748698 85.5551 0.364583 85.7699 0 85.9848-0.364583 86.2517-0.712891 86.5707-1.04492 86.8897-1.37695 87.2576-1.70573 87.6742-2.03125 87.0362-2.35677 86.5642-2.76693 86.2582-3.26172 85.9522-3.75651 85.7992-4.29036 85.7992-4.86328 85.7992-5.65755 85.962-6.36719 86.2875-6.99219 86.613-7.61719 87.0167-8.17708 87.4984-8.67188 87.0948-9.15365 86.7758-9.69727 86.5414-10.3027 86.307-10.9082 86.1898-11.6406 86.1898-12.5 86.1898-13.5026 86.3591-14.401 86.6977-15.1953 87.0362-15.9896 87.505-16.6602 88.1039-17.207 88.7029-17.7539 89.4223-18.1738 90.2621-18.4668 91.102-18.7598 92.0167-18.9062 93.0063-18.9062 93.5401-18.9062 94.0382-18.877 94.5004-18.8184 94.9626-18.7598 95.3956-18.6784 95.7992-18.5742L101.112-18.5742C101.333-18.5742 101.499-18.4668 101.61-18.252 101.72-18.0371 101.776-17.7083 101.776-17.2656ZM96.7367-12.6367C96.7367-13.8346 96.4079-14.7689 95.7504-15.4395 95.0928-16.11 94.1586-16.4453 92.9477-16.4453 92.3227-16.4453 91.779-16.3411 91.3168-16.1328 90.8546-15.9245 90.4704-15.638 90.1645-15.2734 89.8585-14.9089 89.6306-14.4889 89.4809-14.0137 89.3311-13.5384 89.2563-13.0404 89.2563-12.5195 89.2563-11.3607 89.585-10.4492 90.2426-9.78516 90.9001-9.12109 91.8214-8.78906 93.0063-8.78906 93.6443-8.78906 94.1977-8.88997 94.6664-9.0918 95.1352-9.29362 95.5225-9.57357 95.8285-9.93164 96.1345-10.2897 96.3624-10.7031 96.5121-11.1719 96.6618-11.6406 96.7367-12.1289 96.7367-12.6367ZM98.3578 1.28906C98.3578 0.533854 98.0486-0.0488281 97.4301-0.458984 96.8116-0.869141 95.975-1.08724 94.9203-1.11328L90.3695-1.26953C89.9529-0.94401 89.6111-0.634766 89.3441-0.341797 89.0772-0.0488281 88.8656 0.23112 88.7094 0.498047 88.5531 0.764974 88.4457 1.02865 88.3871 1.28906 88.3285 1.54948 88.2992 1.81641 88.2992 2.08984 88.2992 2.9362 88.7289 3.57747 89.5883 4.01367 90.4477 4.44987 91.6456 4.66797 93.182 4.66797 94.1586 4.66797 94.9757 4.57357 95.6332 4.38477 96.2908 4.19596 96.8214 3.94531 97.225 3.63281 97.6286 3.32031 97.9184 2.96224 98.0941 2.55859 98.2699 2.15495 98.3578 1.73177 98.3578 1.28906Z" fill="#FFFFFF" transform="translate(31.8823 57)"/></g></g><path d="M625 360 863 360 923 420 863 480 625 480 685 420Z" fill="#B0D0FE" fill-rule="evenodd"/><text fill="#FFFFFF" font-family="Calibri,Calibri_MSFontService,sans-serif" font-weight="400" font-size="40" transform="translate(726.882 431)">Rating</text><g clip-path="url(#clip11)"><g filter="url(#fx6)" transform="translate(885 355)"><g><path d="M8.50006 7.50006 246.5 7.50006 306.5 67.5001 246.5 127.5 8.50006 127.5 68.4999 67.5001Z" stroke="#B0D0FE" stroke-miterlimit="8" fill="#B0D0FE" fill-rule="evenodd"/></g></g><g clip-path="url(#clip12)" filter="url(#fx7)" transform="translate(937 376)"><g><path d="M20.2344-3.57422C20.2344-3.36589 20.2279-3.18359 20.2148-3.02734 20.2018-2.87109 20.179-2.73438 20.1465-2.61719 20.1139-2.5 20.0716-2.39583 20.0195-2.30469 19.9674-2.21354 19.8763-2.10286 19.7461-1.97266 19.6159-1.84245 19.3424-1.64388 18.9258-1.37695 18.5091-1.11003 17.9915-0.849609 17.373-0.595703 16.7546-0.341797 16.0449-0.126953 15.2441 0.0488281 14.4434 0.224609 13.5677 0.3125 12.6172 0.3125 10.9766 0.3125 9.49544 0.0390625 8.17383-0.507812 6.85221-1.05469 5.72591-1.86198 4.79492-2.92969 3.86393-3.9974 3.14779-5.31575 2.64648-6.88477 2.14518-8.45378 1.89453-10.2604 1.89453-12.3047 1.89453-14.401 2.16471-16.2695 2.70508-17.9102 3.24544-19.5508 4.00391-20.9408 4.98047-22.0801 5.95703-23.2194 7.12565-24.0885 8.48633-24.6875 9.847-25.2865 11.3542-25.5859 13.0078-25.5859 13.737-25.5859 14.4466-25.5176 15.1367-25.3809 15.8268-25.2441 16.4648-25.0716 17.0508-24.8633 17.6367-24.6549 18.1576-24.4141 18.6133-24.1406 19.069-23.8672 19.3848-23.6426 19.5605-23.4668 19.7363-23.291 19.8503-23.1576 19.9023-23.0664 19.9544-22.9753 19.9967-22.8678 20.0293-22.7441 20.0618-22.6204 20.0879-22.474 20.1074-22.3047 20.127-22.1354 20.1367-21.9336 20.1367-21.6992 20.1367-21.4388 20.1236-21.2174 20.0975-21.0352 20.0714-20.8529 20.0321-20.6999 19.9797-20.5762 19.9273-20.4525 19.8651-20.3613 19.7931-20.3027 19.7211-20.2441 19.6327-20.2148 19.5279-20.2148 19.3448-20.2148 19.0896-20.3418 18.7622-20.5957 18.4349-20.8496 18.0126-21.1296 17.4956-21.4355 16.9785-21.7415 16.3502-22.0215 15.6107-22.2754 14.8711-22.5293 13.9843-22.6562 12.9501-22.6562 11.8242-22.6562 10.7999-22.4316 9.87701-21.9824 8.95416-21.5332 8.16549-20.8724 7.51099-20 6.85649-19.1276 6.34923-18.0632 5.98923-16.8066 5.62922-15.5501 5.44922-14.1146 5.44922-12.5 5.44922-10.8984 5.62266-9.48242 5.96954-8.25195 6.31643-7.02148 6.81386-5.99284 7.46185-5.16602 8.10984-4.33919 8.90508-3.71419 9.84756-3.29102 10.79-2.86784 11.8569-2.65625 13.0481-2.65625 14.056-2.65625 14.9363-2.77995 15.6889-3.02734 16.4416-3.27474 17.083-3.55143 17.6131-3.85742 18.1432-4.16341 18.5784-4.4401 18.9188-4.6875 19.2591-4.9349 19.5275-5.05859 19.7238-5.05859 19.8156-5.05859 19.8942-5.03906 19.9596-5 20.025-4.96094 20.0773-4.88607 20.1166-4.77539 20.1558-4.66471 20.1853-4.51172 20.2049-4.31641 20.2246-4.12109 20.2344-3.8737 20.2344-3.57422ZM40.6626-9.47266C40.6626-8.04036 40.4738-6.722 40.0962-5.51758 39.7186-4.31315 39.1554-3.27474 38.4067-2.40234 37.658-1.52995 36.7205-0.849609 35.5942-0.361328 34.4679 0.126953 33.1626 0.371094 31.6782 0.371094 30.2329 0.371094 28.9732 0.15625 27.8989-0.273438 26.8247-0.703125 25.9295-1.32812 25.2134-2.14844 24.4972-2.96875 23.9634-3.96484 23.6118-5.13672 23.2603-6.30859 23.0845-7.63672 23.0845-9.12109 23.0845-10.5534 23.27-11.8717 23.6411-13.0762 24.0122-14.2806 24.5721-15.319 25.3208-16.1914 26.0695-17.0638 27.0037-17.7409 28.1235-18.2227 29.2433-18.7044 30.5519-18.9453 32.0493-18.9453 33.4946-18.9453 34.7544-18.7305 35.8286-18.3008 36.9028-17.8711 37.798-17.2461 38.5142-16.4258 39.2303-15.6055 39.7674-14.6094 40.1255-13.4375 40.4836-12.2656 40.6626-10.944 40.6626-9.47266ZM37.3228-9.25781C37.3228-10.2083 37.2341-11.1068 37.0566-11.9531 36.8792-12.7995 36.5869-13.5417 36.1796-14.1797 35.7723-14.8177 35.2205-15.3223 34.5241-15.6934 33.8278-16.0645 32.9607-16.25 31.9227-16.25 30.9636-16.25 30.1392-16.0807 29.4494-15.7422 28.7596-15.4036 28.1913-14.9251 27.7447-14.3066 27.298-13.6882 26.9663-12.9557 26.7495-12.1094 26.5327-11.263 26.4243-10.3385 26.4243-9.33594 26.4243-8.3724 26.513-7.46745 26.6904-6.62109 26.8678-5.77474 27.1635-5.03581 27.5773-4.4043 27.9911-3.77279 28.5462-3.27148 29.2425-2.90039 29.9388-2.5293 30.8059-2.34375 31.8439-2.34375 32.79-2.34375 33.6112-2.51302 34.3075-2.85156 35.0038-3.1901 35.5753-3.66536 36.0219-4.27734 36.4686-4.88932 36.7971-5.61849 37.0074-6.46484 37.2176-7.3112 37.3228-8.24219 37.3228-9.25781ZM71.4825-0.488281C71.4825-0.384115 71.4565-0.296224 71.4044-0.224609 71.3523-0.152995 71.2677-0.0911458 71.1505-0.0390625 71.0333 0.0130208 70.8705 0.0520833 70.6622 0.078125 70.4538 0.104167 70.1934 0.117187 69.8809 0.117188 69.5554 0.117187 69.2885 0.104167 69.0802 0.078125 68.8718 0.0520833 68.7058 0.0130208 68.5821-0.0390625 68.4584-0.0911458 68.3705-0.152995 68.3184-0.224609 68.2663-0.296224 68.2403-0.384115 68.2403-0.488281L68.2403-11.1719C68.2403-11.9141 68.1752-12.5911 68.045-13.2031 67.9148-13.8151 67.7065-14.3424 67.42-14.7852 67.1335-15.2279 66.769-15.5664 66.3262-15.8008 65.8835-16.0352 65.3627-16.1523 64.7637-16.1523 64.0216-16.1523 63.2761-15.8659 62.5274-15.293 61.7787-14.7201 60.9552-13.8802 60.0567-12.7734L60.0567-0.488281C60.0567-0.384115 60.0307-0.296224 59.9786-0.224609 59.9265-0.152995 59.8386-0.0911458 59.7149-0.0390625 59.5912 0.0130208 59.4252 0.0520833 59.2169 0.078125 59.0085 0.104167 58.7481 0.117187 58.4356 0.117188 58.1361 0.117187 57.879 0.104167 57.6641 0.078125 57.4493 0.0520833 57.28 0.0130208 57.1563-0.0390625 57.0326-0.0911458 56.948-0.152995 56.9024-0.224609 56.8568-0.296224 56.8341-0.384115 56.8341-0.488281L56.8341-11.1719C56.8341-11.9141 56.7624-12.5911 56.6192-13.2031 56.476-13.8151 56.2611-14.3424 55.9747-14.7852 55.6882-15.2279 55.3269-15.5664 54.8907-15.8008 54.4545-16.0352 53.9369-16.1523 53.338-16.1523 52.5958-16.1523 51.8471-15.8659 51.0919-15.293 50.3367-14.7201 49.5164-13.8802 48.6309-12.7734L48.6309-0.488281C48.6309-0.384115 48.6049-0.296224 48.5528-0.224609 48.5007-0.152995 48.4161-0.0911458 48.2989-0.0390625 48.1817 0.0130208 48.019 0.0520833 47.8106 0.078125 47.6023 0.104167 47.3354 0.117187 47.0098 0.117188 46.6973 0.117187 46.4369 0.104167 46.2286 0.078125 46.0203 0.0520833 45.8542 0.0130208 45.7305-0.0390625 45.6068-0.0911458 45.5222-0.152995 45.4766-0.224609 45.4311-0.296224 45.4083-0.384115 45.4083-0.488281L45.4083-18.0664C45.4083-18.1706 45.4278-18.2585 45.4669-18.3301 45.5059-18.4017 45.5841-18.4668 45.7013-18.5254 45.8184-18.584 45.9682-18.623 46.1505-18.6426 46.3328-18.6621 46.5736-18.6719 46.8731-18.6719 47.1596-18.6719 47.3972-18.6621 47.586-18.6426 47.7748-18.623 47.9213-18.584 48.0255-18.5254 48.1296-18.4668 48.2045-18.4017 48.2501-18.3301 48.2957-18.2585 48.3184-18.1706 48.3184-18.0664L48.3184-15.7422C49.308-16.849 50.2683-17.6595 51.1993-18.1738 52.1303-18.6882 53.071-18.9453 54.0216-18.9453 54.7507-18.9453 55.405-18.8607 55.9845-18.6914 56.5639-18.5221 57.0749-18.2845 57.5177-17.9785 57.9604-17.6725 58.338-17.3079 58.6505-16.8848 58.963-16.4616 59.2234-15.9896 59.4317-15.4688 60.0177-16.1068 60.5743-16.6471 61.1016-17.0898 61.629-17.5326 62.1368-17.8906 62.6251-18.1641 63.1134-18.4375 63.5886-18.6361 64.0509-18.7598 64.5131-18.8835 64.9786-18.9453 65.4473-18.9453 66.5802-18.9453 67.5307-18.7467 68.2989-18.3496 69.0671-17.9525 69.6889-17.4219 70.1641-16.7578 70.6394-16.0938 70.9779-15.3158 71.1798-14.4238 71.3816-13.5319 71.4825-12.5911 71.4825-11.6016ZM93.5335-9.55078C93.5335-8.01432 93.3675-6.63411 93.0354-5.41016 92.7034-4.1862 92.2151-3.14779 91.5706-2.29492 90.9261-1.44206 90.1285-0.784505 89.178-0.322266 88.2275 0.139974 87.1403 0.371094 85.9163 0.371094 85.3955 0.371094 84.9137 0.31901 84.471 0.214844 84.0283 0.110677 83.5953-0.0520833 83.1722-0.273438 82.749-0.494792 82.3291-0.77474 81.9124-1.11328 81.4957-1.45182 81.053-1.84896 80.5843-2.30469L80.5843 6.48438C80.5843 6.58854 80.5582 6.67969 80.5061 6.75781 80.4541 6.83594 80.3694 6.90104 80.2522 6.95312 80.1351 7.00521 79.9723 7.04427 79.764 7.07031 79.5556 7.09635 79.2887 7.10938 78.9632 7.10938 78.6507 7.10938 78.3903 7.09635 78.1819 7.07031 77.9736 7.04427 77.8076 7.00521 77.6839 6.95312 77.5602 6.90104 77.4755 6.83594 77.43 6.75781 77.3844 6.67969 77.3616 6.58854 77.3616 6.48438L77.3616-18.0664C77.3616-18.1836 77.3811-18.278 77.4202-18.3496 77.4593-18.4212 77.5374-18.4831 77.6546-18.5352 77.7718-18.5872 77.9215-18.623 78.1038-18.6426 78.2861-18.6621 78.5074-18.6719 78.7679-18.6719 79.0413-18.6719 79.2659-18.6621 79.4417-18.6426 79.6175-18.623 79.764-18.5872 79.8811-18.5352 79.9983-18.4831 80.0797-18.4212 80.1253-18.3496 80.1709-18.278 80.1936-18.1836 80.1936-18.0664L80.1936-15.7031C80.7275-16.25 81.2418-16.7253 81.7366-17.1289 82.2314-17.5326 82.7295-17.8678 83.2308-18.1348 83.7321-18.4017 84.2464-18.6035 84.7737-18.7402 85.3011-18.877 85.8577-18.9453 86.4436-18.9453 87.7197-18.9453 88.8069-18.6979 89.7054-18.2031 90.6038-17.7083 91.3362-17.0312 91.9026-16.1719 92.469-15.3125 92.8824-14.3132 93.1429-13.1738 93.4033-12.0345 93.5335-10.8268 93.5335-9.55078ZM90.1936-9.17969C90.1936-10.0781 90.1249-10.9473 89.9874-11.7871 89.8498-12.627 89.614-13.3724 89.28-14.0234 88.9459-14.6745 88.4972-15.1953 87.9338-15.5859 87.3705-15.9766 86.6696-16.1719 85.8312-16.1719 85.4118-16.1719 84.9991-16.11 84.5931-15.9863 84.187-15.8626 83.7743-15.6673 83.3551-15.4004 82.9359-15.1335 82.497-14.7819 82.0384-14.3457 81.5799-13.9095 81.0951-13.3724 80.5843-12.7344L80.5843-5.74219C81.4752-4.66146 82.3202-3.83464 83.1194-3.26172 83.9185-2.6888 84.7569-2.40234 85.6346-2.40234 86.4468-2.40234 87.1444-2.59766 87.7274-2.98828 88.3104-3.37891 88.782-3.89974 89.1423-4.55078 89.5026-5.20182 89.7679-5.93099 89.9382-6.73828 90.1085-7.54557 90.1936-8.35938 90.1936-9.17969ZM101.598-0.488281C101.598-0.384115 101.572-0.296224 101.519-0.224609 101.467-0.152995 101.383-0.0911458 101.266-0.0390625 101.148 0.0130208 100.986 0.0520833 100.777 0.078125 100.569 0.104167 100.302 0.117187 99.9765 0.117188 99.664 0.117187 99.4036 0.104167 99.1953 0.078125 98.9869 0.0520833 98.8209 0.0130208 98.6972-0.0390625 98.5735-0.0911458 98.4889-0.152995 98.4433-0.224609 98.3977-0.296224 98.375-0.384115 98.375-0.488281L98.375-26.582C98.375-26.6862 98.3977-26.7773 98.4433-26.8555 98.4889-26.9336 98.5735-26.9987 98.6972-27.0508 98.8209-27.1029 98.9869-27.1419 99.1953-27.168 99.4036-27.194 99.664-27.207 99.9765-27.207 100.302-27.207 100.569-27.194 100.777-27.168 100.986-27.1419 101.148-27.1029 101.266-27.0508 101.383-26.9987 101.467-26.9336 101.519-26.8555 101.572-26.7773 101.598-26.6862 101.598-26.582ZM122.555-10.0391C122.555-9.53125 122.427-9.16992 122.172-8.95508 121.917-8.74023 121.626-8.63281 121.299-8.63281L109.723-8.63281C109.723-7.65625 109.821-6.77734 110.017-5.99609 110.213-5.21484 110.541-4.54427 110.999-3.98438 111.457-3.42448 112.052-2.99479 112.785-2.69531 113.517-2.39583 114.414-2.24609 115.473-2.24609 116.311-2.24609 117.057-2.31445 117.711-2.45117 118.365-2.58789 118.931-2.74089 119.408-2.91016 119.886-3.07943 120.279-3.23242 120.586-3.36914 120.894-3.50586 121.126-3.57422 121.283-3.57422 121.375-3.57422 121.456-3.55143 121.528-3.50586 121.6-3.46029 121.656-3.39193 121.695-3.30078 121.734-3.20964 121.764-3.08268 121.783-2.91992 121.803-2.75716 121.813-2.55859 121.813-2.32422 121.813-2.15495 121.806-2.00846 121.793-1.88477 121.78-1.76107 121.764-1.65039 121.744-1.55273 121.725-1.45508 121.692-1.36719 121.647-1.28906 121.601-1.21094 121.543-1.13607 121.471-1.06445 121.399-0.992839 121.188-0.875651 120.836-0.712891 120.485-0.55013 120.029-0.390625 119.469-0.234375 118.909-0.078125 118.261 0.061849 117.526 0.185547 116.79 0.309245 116.005 0.371094 115.172 0.371094 113.727 0.371094 112.461 0.169271 111.373-0.234375 110.286-0.638021 109.371-1.23698 108.629-2.03125 107.887-2.82552 107.327-3.82161 106.949-5.01953 106.572-6.21745 106.383-7.61068 106.383-9.19922 106.383-10.7096 106.578-12.0671 106.969-13.2715 107.36-14.4759 107.923-15.498 108.658-16.3379 109.394-17.1777 110.283-17.8223 111.324-18.2715 112.366-18.7207 113.532-18.9453 114.821-18.9453 116.201-18.9453 117.376-18.724 118.346-18.2812 119.316-17.8385 120.114-17.2428 120.739-16.4941 121.364-15.7454 121.823-14.8665 122.116-13.8574 122.408-12.8483 122.555-11.7708 122.555-10.625ZM119.313-10.9961C119.352-12.6888 118.975-14.0169 118.183-14.9805 117.39-15.944 116.215-16.4258 114.655-16.4258 113.856-16.4258 113.155-16.276 112.553-15.9766 111.95-15.6771 111.446-15.2799 111.04-14.7852 110.633-14.2904 110.319-13.7142 110.096-13.0566 109.874-12.3991 109.749-11.7122 109.723-10.9961ZM136.382-1.77734C136.382-1.39974 136.356-1.10026 136.304-0.878906 136.252-0.657552 136.174-0.494792 136.07-0.390625 135.966-0.286458 135.809-0.188802 135.601-0.0976562 135.393-0.00651042 135.155 0.0683594 134.888 0.126953 134.621 0.185547 134.338 0.234375 134.038 0.273438 133.739 0.3125 133.44 0.332031 133.14 0.332031 132.229 0.332031 131.447 0.211589 130.796-0.0292969 130.145-0.270182 129.611-0.634766 129.195-1.12305 128.778-1.61133 128.475-2.22982 128.287-2.97852 128.098-3.72721 128.003-4.60938 128.003-5.625L128.003-15.8984 125.542-15.8984C125.347-15.8984 125.191-16.0026 125.074-16.2109 124.956-16.4193 124.898-16.7578 124.898-17.2266 124.898-17.474 124.914-17.6823 124.947-17.8516 124.979-18.0208 125.022-18.1608 125.074-18.2715 125.126-18.3822 125.194-18.4603 125.279-18.5059 125.363-18.5514 125.458-18.5742 125.562-18.5742L128.003-18.5742 128.003-22.7539C128.003-22.8451 128.026-22.9297 128.072-23.0078 128.117-23.0859 128.202-23.1543 128.326-23.2129 128.449-23.2715 128.615-23.3138 128.824-23.3398 129.032-23.3659 129.292-23.3789 129.605-23.3789 129.93-23.3789 130.197-23.3659 130.406-23.3398 130.614-23.3138 130.777-23.2715 130.894-23.2129 131.011-23.1543 131.096-23.0859 131.148-23.0078 131.2-22.9297 131.226-22.8451 131.226-22.7539L131.226-18.5742 135.738-18.5742C135.842-18.5742 135.933-18.5514 136.011-18.5059 136.089-18.4603 136.158-18.3822 136.216-18.2715 136.275-18.1608 136.317-18.0208 136.343-17.8516 136.369-17.6823 136.382-17.474 136.382-17.2266 136.382-16.7578 136.324-16.4193 136.206-16.2109 136.089-16.0026 135.933-15.8984 135.738-15.8984L131.226-15.8984 131.226-6.09375C131.226-4.88281 131.405-3.9681 131.763-3.34961 132.121-2.73112 132.762-2.42188 133.687-2.42188 133.986-2.42188 134.253-2.45117 134.488-2.50977 134.722-2.56836 134.93-2.63021 135.113-2.69531 135.295-2.76042 135.451-2.82227 135.581-2.88086 135.712-2.93945 135.829-2.96875 135.933-2.96875 135.998-2.96875 136.06-2.95247 136.119-2.91992 136.177-2.88737 136.223-2.82552 136.255-2.73438 136.288-2.64323 136.317-2.51953 136.343-2.36328 136.369-2.20703 136.382-2.01172 136.382-1.77734ZM155.215-10.0391C155.215-9.53125 155.087-9.16992 154.832-8.95508 154.577-8.74023 154.286-8.63281 153.959-8.63281L142.383-8.63281C142.383-7.65625 142.481-6.77734 142.677-5.99609 142.873-5.21484 143.201-4.54427 143.659-3.98438 144.117-3.42448 144.712-2.99479 145.445-2.69531 146.177-2.39583 147.074-2.24609 148.133-2.24609 148.971-2.24609 149.717-2.31445 150.371-2.45117 151.025-2.58789 151.591-2.74089 152.068-2.91016 152.546-3.07943 152.939-3.23242 153.246-3.36914 153.554-3.50586 153.786-3.57422 153.943-3.57422 154.035-3.57422 154.116-3.55143 154.188-3.50586 154.26-3.46029 154.316-3.39193 154.355-3.30078 154.394-3.20964 154.424-3.08268 154.443-2.91992 154.463-2.75716 154.473-2.55859 154.473-2.32422 154.473-2.15495 154.466-2.00846 154.453-1.88477 154.44-1.76107 154.424-1.65039 154.404-1.55273 154.385-1.45508 154.352-1.36719 154.307-1.28906 154.261-1.21094 154.203-1.13607 154.131-1.06445 154.059-0.992839 153.848-0.875651 153.496-0.712891 153.145-0.55013 152.689-0.390625 152.129-0.234375 151.569-0.078125 150.921 0.061849 150.186 0.185547 149.45 0.309245 148.665 0.371094 147.832 0.371094 146.387 0.371094 145.121 0.169271 144.033-0.234375 142.946-0.638021 142.031-1.23698 141.289-2.03125 140.547-2.82552 139.987-3.82161 139.609-5.01953 139.232-6.21745 139.043-7.61068 139.043-9.19922 139.043-10.7096 139.238-12.0671 139.629-13.2715 140.02-14.4759 140.583-15.498 141.318-16.3379 142.054-17.1777 142.943-17.8223 143.984-18.2715 145.026-18.7207 146.192-18.9453 147.481-18.9453 148.861-18.9453 150.036-18.724 151.006-18.2812 151.976-17.8385 152.774-17.2428 153.399-16.4941 154.024-15.7454 154.483-14.8665 154.775-13.8574 155.068-12.8483 155.215-11.7708 155.215-10.625ZM151.973-10.9961C152.012-12.6888 151.635-14.0169 150.843-14.9805 150.05-15.944 148.875-16.4258 147.315-16.4258 146.516-16.4258 145.815-16.276 145.213-15.9766 144.61-15.6771 144.106-15.2799 143.7-14.7852 143.293-14.2904 142.979-13.7142 142.756-13.0566 142.534-12.3991 142.409-11.7122 142.383-10.9961Z" fill="#FFFFFF" transform="translate(31.0737 57)"/></g></g></g><path d="M893.5 360.5 1131.5 360.5 1191.5 420.5 1131.5 480.5 893.5 480.5 953.5 420.5Z" stroke="#B0D0FE" stroke-miterlimit="8" fill="#B0D0FE" fill-rule="evenodd"/><text fill="#FFFFFF" font-family="Calibri,Calibri_MSFontService,sans-serif" font-weight="400" font-size="40" transform="translate(968.074 431)">Complete</text></g></svg>